<mxfile host="app.diagrams.net" agent="Mozilla/5.0 (Windows NT 10.0; Win64; x64) AppleWebKit/537.36 (KHTML, like Gecko) Chrome/134.0.0.0 Safari/537.36 Edg/134.0.0.0" version="26.1.1" pages="2">
  <diagram name="Page-1" id="LhkC0GKqJQl8EqU11tic">
    <mxGraphModel dx="2098" dy="2030" grid="0" gridSize="10" guides="1" tooltips="1" connect="1" arrows="1" fold="1" page="0" pageScale="1" pageWidth="850" pageHeight="1100" math="0" shadow="0">
      <root>
        <mxCell id="0" />
        <mxCell id="1" parent="0" />
        <mxCell id="y0F5sRRlfPdBhK9bxvjx-1" value="Article" style="swimlane;fontStyle=1;align=center;verticalAlign=top;childLayout=stackLayout;horizontal=1;startSize=26;horizontalStack=0;resizeParent=1;resizeParentMax=0;resizeLast=0;collapsible=1;marginBottom=0;whiteSpace=wrap;html=1;" parent="1" vertex="1">
          <mxGeometry x="493" y="-716" width="260" height="165" as="geometry" />
        </mxCell>
        <mxCell id="y0F5sRRlfPdBhK9bxvjx-2" value="&lt;div&gt;- nomArticle : string&lt;/div&gt;&lt;div&gt;- quantiteArticle: number&lt;br&gt;- prisUnitaire : number&lt;/div&gt;&lt;div&gt;-IdArticle : number&lt;br&gt;- estTaxable: boolean&lt;br&gt;&lt;br&gt;&lt;/div&gt;" style="text;strokeColor=none;fillColor=none;align=left;verticalAlign=top;spacingLeft=4;spacingRight=4;overflow=hidden;rotatable=0;points=[[0,0.5],[1,0.5]];portConstraint=eastwest;whiteSpace=wrap;html=1;" parent="y0F5sRRlfPdBhK9bxvjx-1" vertex="1">
          <mxGeometry y="26" width="260" height="85" as="geometry" />
        </mxCell>
        <mxCell id="y0F5sRRlfPdBhK9bxvjx-3" value="" style="line;strokeWidth=1;fillColor=none;align=left;verticalAlign=middle;spacingTop=-1;spacingLeft=3;spacingRight=3;rotatable=0;labelPosition=right;points=[];portConstraint=eastwest;strokeColor=inherit;" parent="y0F5sRRlfPdBhK9bxvjx-1" vertex="1">
          <mxGeometry y="111" width="260" height="8" as="geometry" />
        </mxCell>
        <mxCell id="y0F5sRRlfPdBhK9bxvjx-4" value="+ montantTaxe()&lt;div&gt;+ montantTotal()&lt;/div&gt;" style="text;strokeColor=none;fillColor=none;align=left;verticalAlign=top;spacingLeft=4;spacingRight=4;overflow=hidden;rotatable=0;points=[[0,0.5],[1,0.5]];portConstraint=eastwest;whiteSpace=wrap;html=1;" parent="y0F5sRRlfPdBhK9bxvjx-1" vertex="1">
          <mxGeometry y="119" width="260" height="46" as="geometry" />
        </mxCell>
        <mxCell id="vKdj8ruJpH2rpbCoqokS-1" value="Client" style="swimlane;fontStyle=1;align=center;verticalAlign=top;childLayout=stackLayout;horizontal=1;startSize=26;horizontalStack=0;resizeParent=1;resizeParentMax=0;resizeLast=0;collapsible=1;marginBottom=0;whiteSpace=wrap;html=1;" parent="1" vertex="1">
          <mxGeometry x="-446" y="-628" width="317" height="175" as="geometry" />
        </mxCell>
        <mxCell id="vKdj8ruJpH2rpbCoqokS-2" value="&lt;div&gt;&lt;div&gt;- nom: String&lt;/div&gt;&lt;/div&gt;&lt;div&gt;- prenom: String&lt;br&gt;+ clientId: number&lt;/div&gt;&lt;div&gt;- email: string&lt;/div&gt;&lt;div&gt;-numeroTelephone: number&lt;/div&gt;&lt;div&gt;- estPrivilegie: boolean&lt;/div&gt;" style="text;strokeColor=none;fillColor=none;align=left;verticalAlign=top;spacingLeft=4;spacingRight=4;overflow=hidden;rotatable=0;points=[[0,0.5],[1,0.5]];portConstraint=eastwest;whiteSpace=wrap;html=1;" parent="vKdj8ruJpH2rpbCoqokS-1" vertex="1">
          <mxGeometry y="26" width="317" height="115" as="geometry" />
        </mxCell>
        <mxCell id="vKdj8ruJpH2rpbCoqokS-3" value="" style="line;strokeWidth=1;fillColor=none;align=left;verticalAlign=middle;spacingTop=-1;spacingLeft=3;spacingRight=3;rotatable=0;labelPosition=right;points=[];portConstraint=eastwest;strokeColor=inherit;" parent="vKdj8ruJpH2rpbCoqokS-1" vertex="1">
          <mxGeometry y="141" width="317" height="8" as="geometry" />
        </mxCell>
        <mxCell id="vKdj8ruJpH2rpbCoqokS-4" value="+ estClientPrivilegie(estPrivilegie): boolean" style="text;strokeColor=none;fillColor=none;align=left;verticalAlign=top;spacingLeft=4;spacingRight=4;overflow=hidden;rotatable=0;points=[[0,0.5],[1,0.5]];portConstraint=eastwest;whiteSpace=wrap;html=1;" parent="vKdj8ruJpH2rpbCoqokS-1" vertex="1">
          <mxGeometry y="149" width="317" height="26" as="geometry" />
        </mxCell>
        <mxCell id="vKdj8ruJpH2rpbCoqokS-5" value="Panier virtuelle" style="swimlane;fontStyle=1;align=center;verticalAlign=top;childLayout=stackLayout;horizontal=1;startSize=26;horizontalStack=0;resizeParent=1;resizeParentMax=0;resizeLast=0;collapsible=1;marginBottom=0;whiteSpace=wrap;html=1;" parent="1" vertex="1">
          <mxGeometry x="-13" y="-628" width="335" height="264" as="geometry">
            <mxRectangle x="-514" y="12" width="114" height="26" as="alternateBounds" />
          </mxGeometry>
        </mxCell>
        <mxCell id="vKdj8ruJpH2rpbCoqokS-6" value="&lt;div&gt;- Client.clientId: number&lt;/div&gt;&lt;div&gt;&lt;span style=&quot;background-color: transparent; color: light-dark(rgb(0, 0, 0), rgb(255, 255, 255));&quot;&gt;- idPanier: number&lt;/span&gt;&lt;/div&gt;&lt;div&gt;- articles: array[arcticle,quantite]&lt;/div&gt;&lt;div&gt;&lt;span style=&quot;background-color: transparent; color: light-dark(rgb(0, 0, 0), rgb(255, 255, 255));&quot;&gt;- dateCreationPanier: number&lt;/span&gt;&lt;/div&gt;&lt;div&gt;- total : number&lt;/div&gt;&lt;div&gt;- methodePaiement: string&lt;/div&gt;&lt;div&gt;&lt;br&gt;&lt;/div&gt;&lt;div&gt;&lt;br&gt;&lt;/div&gt;" style="text;strokeColor=none;fillColor=none;align=left;verticalAlign=top;spacingLeft=4;spacingRight=4;overflow=hidden;rotatable=0;points=[[0,0.5],[1,0.5]];portConstraint=eastwest;whiteSpace=wrap;html=1;" parent="vKdj8ruJpH2rpbCoqokS-5" vertex="1">
          <mxGeometry y="26" width="335" height="115" as="geometry" />
        </mxCell>
        <mxCell id="vKdj8ruJpH2rpbCoqokS-7" value="" style="line;strokeWidth=1;fillColor=none;align=left;verticalAlign=middle;spacingTop=-1;spacingLeft=3;spacingRight=3;rotatable=0;labelPosition=right;points=[];portConstraint=eastwest;strokeColor=inherit;" parent="vKdj8ruJpH2rpbCoqokS-5" vertex="1">
          <mxGeometry y="141" width="335" height="8" as="geometry" />
        </mxCell>
        <mxCell id="vKdj8ruJpH2rpbCoqokS-8" value="&lt;div&gt;+ ajoutArticle()&lt;/div&gt;&lt;div&gt;+ suppressionArticle()&lt;/div&gt;&lt;div&gt;+ calculerTotal()&lt;/div&gt;&lt;div&gt;+ applicationEscompte()&lt;/div&gt;&lt;div&gt;+ confirmationCommande()&lt;/div&gt;" style="text;strokeColor=none;fillColor=none;align=left;verticalAlign=top;spacingLeft=4;spacingRight=4;overflow=hidden;rotatable=0;points=[[0,0.5],[1,0.5]];portConstraint=eastwest;whiteSpace=wrap;html=1;" parent="vKdj8ruJpH2rpbCoqokS-5" vertex="1">
          <mxGeometry y="149" width="335" height="115" as="geometry" />
        </mxCell>
        <mxCell id="vKdj8ruJpH2rpbCoqokS-9" value="Paiement" style="swimlane;fontStyle=1;align=center;verticalAlign=top;childLayout=stackLayout;horizontal=1;startSize=26;horizontalStack=0;resizeParent=1;resizeParentMax=0;resizeLast=0;collapsible=1;marginBottom=0;whiteSpace=wrap;html=1;" parent="1" vertex="1">
          <mxGeometry x="125" y="-278" width="269" height="156" as="geometry" />
        </mxCell>
        <mxCell id="vKdj8ruJpH2rpbCoqokS-11" value="" style="line;strokeWidth=1;fillColor=none;align=left;verticalAlign=middle;spacingTop=-1;spacingLeft=3;spacingRight=3;rotatable=0;labelPosition=right;points=[];portConstraint=eastwest;strokeColor=inherit;" parent="vKdj8ruJpH2rpbCoqokS-9" vertex="1">
          <mxGeometry y="26" width="269" height="8" as="geometry" />
        </mxCell>
        <mxCell id="vKdj8ruJpH2rpbCoqokS-10" value="- idTransaction: number&lt;div&gt;- StatusPiaement: string&lt;/div&gt;&lt;div&gt;- titulaireCarte: string&lt;/div&gt;&lt;div&gt;- carteUtilisÃ©: Carte&lt;/div&gt;" style="text;strokeColor=none;fillColor=none;align=left;verticalAlign=top;spacingLeft=4;spacingRight=4;overflow=hidden;rotatable=0;points=[[0,0.5],[1,0.5]];portConstraint=eastwest;whiteSpace=wrap;html=1;" parent="vKdj8ruJpH2rpbCoqokS-9" vertex="1">
          <mxGeometry y="34" width="269" height="87" as="geometry" />
        </mxCell>
        <mxCell id="OCxzfQqBFVTwr3kHudwE-1" value="&lt;span style=&quot;&quot;&gt;+validationPaiement()&lt;/span&gt;" style="rounded=0;whiteSpace=wrap;html=1;align=left;" vertex="1" parent="vKdj8ruJpH2rpbCoqokS-9">
          <mxGeometry y="121" width="269" height="35" as="geometry" />
        </mxCell>
        <mxCell id="vKdj8ruJpH2rpbCoqokS-13" value="Carte" style="swimlane;fontStyle=1;align=center;verticalAlign=top;childLayout=stackLayout;horizontal=1;startSize=26;horizontalStack=0;resizeParent=1;resizeParentMax=0;resizeLast=0;collapsible=1;marginBottom=0;whiteSpace=wrap;html=1;" parent="1" vertex="1">
          <mxGeometry x="-377" y="-284" width="270" height="192" as="geometry" />
        </mxCell>
        <mxCell id="vKdj8ruJpH2rpbCoqokS-14" value="- titulaireCarte: string&lt;div&gt;- typeDeCarteDeCredit: string&lt;/div&gt;&lt;div&gt;- numeroCarte: number&lt;/div&gt;&lt;div&gt;- codeSecurite: number&lt;/div&gt;&lt;div&gt;- dateEpiration: string&lt;/div&gt;&lt;div&gt;- montantRestantDeCredit: number&lt;/div&gt;" style="text;strokeColor=none;fillColor=none;align=left;verticalAlign=top;spacingLeft=4;spacingRight=4;overflow=hidden;rotatable=0;points=[[0,0.5],[1,0.5]];portConstraint=eastwest;whiteSpace=wrap;html=1;" parent="vKdj8ruJpH2rpbCoqokS-13" vertex="1">
          <mxGeometry y="26" width="270" height="112" as="geometry" />
        </mxCell>
        <mxCell id="vKdj8ruJpH2rpbCoqokS-15" value="" style="line;strokeWidth=1;fillColor=none;align=left;verticalAlign=middle;spacingTop=-1;spacingLeft=3;spacingRight=3;rotatable=0;labelPosition=right;points=[];portConstraint=eastwest;strokeColor=inherit;" parent="vKdj8ruJpH2rpbCoqokS-13" vertex="1">
          <mxGeometry y="138" width="270" height="8" as="geometry" />
        </mxCell>
        <mxCell id="vKdj8ruJpH2rpbCoqokS-16" value="+ validationCarte(): boolean&lt;div&gt;&lt;br&gt;&lt;/div&gt;" style="text;strokeColor=none;fillColor=none;align=left;verticalAlign=top;spacingLeft=4;spacingRight=4;overflow=hidden;rotatable=0;points=[[0,0.5],[1,0.5]];portConstraint=eastwest;whiteSpace=wrap;html=1;" parent="vKdj8ruJpH2rpbCoqokS-13" vertex="1">
          <mxGeometry y="146" width="270" height="46" as="geometry" />
        </mxCell>
        <mxCell id="vKdj8ruJpH2rpbCoqokS-17" value="Relation" style="endArrow=open;html=1;endSize=12;startArrow=diamondThin;startSize=14;startFill=0;edgeStyle=orthogonalEdgeStyle;rounded=0;" parent="1" edge="1">
          <mxGeometry relative="1" as="geometry">
            <mxPoint x="341" y="162" as="sourcePoint" />
            <mxPoint x="501" y="162" as="targetPoint" />
          </mxGeometry>
        </mxCell>
        <mxCell id="vKdj8ruJpH2rpbCoqokS-18" value="0..n" style="edgeLabel;resizable=0;html=1;align=left;verticalAlign=top;" parent="vKdj8ruJpH2rpbCoqokS-17" connectable="0" vertex="1">
          <mxGeometry x="-1" relative="1" as="geometry" />
        </mxCell>
        <mxCell id="vKdj8ruJpH2rpbCoqokS-19" value="1" style="edgeLabel;resizable=0;html=1;align=right;verticalAlign=top;" parent="vKdj8ruJpH2rpbCoqokS-17" connectable="0" vertex="1">
          <mxGeometry x="1" relative="1" as="geometry" />
        </mxCell>
        <mxCell id="PBFFROz9SGwxzKGs8fMy-2" value="confirmation" style="swimlane;fontStyle=1;align=center;verticalAlign=top;childLayout=stackLayout;horizontal=1;startSize=26;horizontalStack=0;resizeParent=1;resizeParentMax=0;resizeLast=0;collapsible=1;marginBottom=0;whiteSpace=wrap;html=1;" parent="1" vertex="1">
          <mxGeometry x="511" y="-480" width="242" height="170" as="geometry" />
        </mxCell>
        <mxCell id="PBFFROz9SGwxzKGs8fMy-3" value="- idCommande: string&lt;div&gt;-statut: string&lt;/div&gt;&lt;div&gt;-detailsPaiement: object&lt;/div&gt;&lt;div&gt;&lt;br&gt;&lt;/div&gt;" style="text;strokeColor=none;fillColor=none;align=left;verticalAlign=top;spacingLeft=4;spacingRight=4;overflow=hidden;rotatable=0;points=[[0,0.5],[1,0.5]];portConstraint=eastwest;whiteSpace=wrap;html=1;" parent="PBFFROz9SGwxzKGs8fMy-2" vertex="1">
          <mxGeometry y="26" width="242" height="64" as="geometry" />
        </mxCell>
        <mxCell id="PBFFROz9SGwxzKGs8fMy-4" value="" style="line;strokeWidth=1;fillColor=none;align=left;verticalAlign=middle;spacingTop=-1;spacingLeft=3;spacingRight=3;rotatable=0;labelPosition=right;points=[];portConstraint=eastwest;strokeColor=inherit;" parent="PBFFROz9SGwxzKGs8fMy-2" vertex="1">
          <mxGeometry y="90" width="242" height="8" as="geometry" />
        </mxCell>
        <mxCell id="PBFFROz9SGwxzKGs8fMy-5" value="&lt;div&gt;+ annulerTrasaction()&lt;/div&gt;&lt;div&gt;+ validerCommande()&lt;/div&gt;&lt;div&gt;+ livraisonCommande()&lt;/div&gt;" style="text;strokeColor=none;fillColor=none;align=left;verticalAlign=top;spacingLeft=4;spacingRight=4;overflow=hidden;rotatable=0;points=[[0,0.5],[1,0.5]];portConstraint=eastwest;whiteSpace=wrap;html=1;" parent="PBFFROz9SGwxzKGs8fMy-2" vertex="1">
          <mxGeometry y="98" width="242" height="72" as="geometry" />
        </mxCell>
        <mxCell id="PBFFROz9SGwxzKGs8fMy-8" value="Use" style="endArrow=open;endSize=12;dashed=1;html=1;rounded=0;entryX=0.006;entryY=0.11;entryDx=0;entryDy=0;entryPerimeter=0;exitX=0;exitY=0.5;exitDx=0;exitDy=0;" parent="1" source="vKdj8ruJpH2rpbCoqokS-6" target="vKdj8ruJpH2rpbCoqokS-9" edge="1">
          <mxGeometry x="0.0508" width="160" relative="1" as="geometry">
            <mxPoint x="26" y="-58" as="sourcePoint" />
            <mxPoint x="-18" y="-8" as="targetPoint" />
            <Array as="points">
              <mxPoint x="-13" y="-261" />
            </Array>
            <mxPoint x="1" as="offset" />
          </mxGeometry>
        </mxCell>
        <mxCell id="PBFFROz9SGwxzKGs8fMy-9" value="1" style="endArrow=open;html=1;endSize=12;startArrow=diamondThin;startSize=14;startFill=0;edgeStyle=orthogonalEdgeStyle;align=left;verticalAlign=bottom;rounded=0;entryX=1;entryY=0.5;entryDx=0;entryDy=0;exitX=0;exitY=0.5;exitDx=0;exitDy=0;" parent="1" edge="1" target="vKdj8ruJpH2rpbCoqokS-14" source="vKdj8ruJpH2rpbCoqokS-10">
          <mxGeometry x="-1" y="3" relative="1" as="geometry">
            <mxPoint x="-197" y="301" as="sourcePoint" />
            <mxPoint x="-65" y="104" as="targetPoint" />
          </mxGeometry>
        </mxCell>
        <mxCell id="OCxzfQqBFVTwr3kHudwE-3" value="&lt;table data-end=&quot;3038&quot; data-start=&quot;2340&quot;&gt;&lt;thead data-end=&quot;2438&quot; data-start=&quot;2340&quot;&gt;&lt;tr data-end=&quot;2438&quot; data-start=&quot;2340&quot;&gt;&lt;th data-end=&quot;2371&quot; data-start=&quot;2340&quot;&gt;Relation&lt;/th&gt;&lt;th data-end=&quot;2390&quot; data-start=&quot;2371&quot;&gt;Type de relation&lt;/th&gt;&lt;th data-end=&quot;2404&quot; data-start=&quot;2390&quot;&gt;CardinalitÃ©&lt;/th&gt;&lt;th data-end=&quot;2438&quot; data-start=&quot;2404&quot;&gt;Terme reprÃ©sentant la relation&lt;/th&gt;&lt;/tr&gt;&lt;/thead&gt;&lt;tbody data-end=&quot;3038&quot; data-start=&quot;2539&quot;&gt;&lt;tr data-end=&quot;2638&quot; data-start=&quot;2539&quot;&gt;&lt;td&gt;&lt;strong data-end=&quot;2560&quot; data-start=&quot;2541&quot;&gt;Client â Panier&lt;/strong&gt;&lt;/td&gt;&lt;td&gt;AgrÃ©gation&lt;/td&gt;&lt;td&gt;1-N&lt;/td&gt;&lt;td&gt;&lt;em data-end=&quot;2617&quot; data-start=&quot;2606&quot;&gt;&quot;possÃ¨de&quot;&lt;/em&gt;&lt;/td&gt;&lt;/tr&gt;&lt;tr data-end=&quot;2738&quot; data-start=&quot;2639&quot;&gt;&lt;td&gt;&lt;strong data-end=&quot;2661&quot; data-start=&quot;2641&quot;&gt;Panier â Article&lt;/strong&gt;&lt;/td&gt;&lt;td&gt;AgrÃ©gation&lt;/td&gt;&lt;td&gt;1-N&lt;/td&gt;&lt;td&gt;&lt;em data-end=&quot;2718&quot; data-start=&quot;2706&quot;&gt;&quot;contient&quot;&lt;/em&gt;&lt;/td&gt;&lt;/tr&gt;&lt;tr data-end=&quot;2838&quot; data-start=&quot;2739&quot;&gt;&lt;td&gt;&lt;strong data-end=&quot;2762&quot; data-start=&quot;2741&quot;&gt;Panier â Paiement&lt;/strong&gt;&lt;/td&gt;&lt;td&gt;DÃ©pendance&lt;/td&gt;&lt;td&gt;1-1&lt;/td&gt;&lt;td&gt;&lt;em data-end=&quot;2819&quot; data-start=&quot;2806&quot;&gt;&quot;dÃ©pend de&quot;&lt;/em&gt;&lt;/td&gt;&lt;/tr&gt;&lt;tr data-end=&quot;2938&quot; data-start=&quot;2839&quot;&gt;&lt;td&gt;&lt;strong data-end=&quot;2866&quot; data-start=&quot;2841&quot;&gt;Panier â Confirmation&lt;/strong&gt;&lt;/td&gt;&lt;td&gt;DÃ©pendance&lt;/td&gt;&lt;td&gt;1-1&lt;/td&gt;&lt;td&gt;&lt;em data-end=&quot;2916&quot; data-start=&quot;2906&quot;&gt;&quot;gÃ©nÃ¨re&quot;&lt;/em&gt;&lt;/td&gt;&lt;/tr&gt;&lt;tr data-end=&quot;3038&quot; data-start=&quot;2939&quot;&gt;&lt;td&gt;&lt;strong data-end=&quot;2961&quot; data-start=&quot;2941&quot;&gt;Paiement â Carte&lt;/strong&gt;&lt;/td&gt;&lt;td&gt;AgrÃ©gation&lt;/td&gt;&lt;td&gt;1-N&lt;/td&gt;&lt;td&gt;&lt;em data-end=&quot;3017&quot; data-start=&quot;3006&quot;&gt;&quot;utilise&quot;&lt;/em&gt;&lt;/td&gt;&lt;/tr&gt;&lt;/tbody&gt;&lt;/table&gt;" style="rounded=0;whiteSpace=wrap;html=1;" vertex="1" parent="1">
          <mxGeometry x="94" y="185" width="511" height="297" as="geometry" />
        </mxCell>
        <mxCell id="OCxzfQqBFVTwr3kHudwE-6" value="Use" style="endArrow=open;endSize=12;dashed=1;html=1;rounded=0;fontSize=12;curved=1;exitX=1;exitY=0.5;exitDx=0;exitDy=0;entryX=0;entryY=0.5;entryDx=0;entryDy=0;" edge="1" parent="1" source="vKdj8ruJpH2rpbCoqokS-8" target="PBFFROz9SGwxzKGs8fMy-3">
          <mxGeometry width="160" relative="1" as="geometry">
            <mxPoint x="289" y="-62" as="sourcePoint" />
            <mxPoint x="449" y="-62" as="targetPoint" />
          </mxGeometry>
        </mxCell>
        <mxCell id="OCxzfQqBFVTwr3kHudwE-7" value="1" style="endArrow=open;html=1;endSize=12;startArrow=diamondThin;startSize=14;startFill=0;edgeStyle=orthogonalEdgeStyle;align=left;verticalAlign=bottom;rounded=0;fontSize=12;curved=1;entryX=0;entryY=0.5;entryDx=0;entryDy=0;exitX=1;exitY=0.5;exitDx=0;exitDy=0;" edge="1" parent="1" source="vKdj8ruJpH2rpbCoqokS-6" target="y0F5sRRlfPdBhK9bxvjx-2">
          <mxGeometry x="0.0125" y="30" relative="1" as="geometry">
            <mxPoint x="248" y="-654" as="sourcePoint" />
            <mxPoint x="408" y="-654" as="targetPoint" />
            <Array as="points">
              <mxPoint x="322" y="-575" />
              <mxPoint x="427" y="-575" />
            </Array>
            <mxPoint x="-1" as="offset" />
          </mxGeometry>
        </mxCell>
        <mxCell id="OCxzfQqBFVTwr3kHudwE-9" value="" style="edgeStyle=none;curved=1;rounded=0;orthogonalLoop=1;jettySize=auto;html=1;fontSize=12;startSize=8;endSize=8;entryX=0;entryY=0.5;entryDx=0;entryDy=0;exitX=1;exitY=0.5;exitDx=0;exitDy=0;" edge="1" parent="1" source="vKdj8ruJpH2rpbCoqokS-2" target="vKdj8ruJpH2rpbCoqokS-6">
          <mxGeometry relative="1" as="geometry">
            <mxPoint x="-20" y="-544" as="targetPoint" />
          </mxGeometry>
        </mxCell>
      </root>
    </mxGraphModel>
  </diagram>
  <diagram id="qk8H1CshacFP2wpFvfV3" name="Page-2">
    <mxGraphModel dx="513" dy="608" grid="0" gridSize="10" guides="1" tooltips="1" connect="1" arrows="1" fold="1" page="0" pageScale="1" pageWidth="850" pageHeight="1100" math="0" shadow="0">
      <root>
        <mxCell id="0" />
        <mxCell id="1" parent="0" />
      </root>
    </mxGraphModel>
  </diagram>
</mxfile>
